<svg xmlns="http://www.w3.org/2000/svg" viewBox="0 0 1000 1000" preserveAspectRatio="none">
  <rect width="1000" height="1000" fill="transparent"/>

  <!-- Bottom-left: mystical stone cluster with moss-glow -->
  <ellipse cx="148" cy="865" rx="200" ry="108" fill="rgba(36,26,55,0.88)"/>
  <ellipse cx="85" cy="825" rx="118" ry="82" fill="rgba(42,30,62,0.85)"/>
  <ellipse cx="198" cy="835" rx="96" ry="65" fill="rgba(48,36,70,0.82)"/>
  <!-- Glowing mineral veins on left rocks -->
  <path d="M 95,820 Q 118,808 145,814" stroke="rgba(80,200,200,0.38)" stroke-width="3" fill="none"/>
  <path d="M 165,825 Q 188,815 208,820" stroke="rgba(160,80,220,0.35)" stroke-width="2.5" fill="none"/>
  <!-- Mystical fallen crystal spire -->
  <path d="M 15,895 Q 105,858 225,872 Q 290,880 335,886" stroke="rgba(44,30,66,0.84)" stroke-width="22" fill="none" stroke-linecap="round"/>
  <path d="M 15,895 Q 105,858 225,872 Q 290,880 335,886" stroke="rgba(80,50,110,0.44)" stroke-width="13" fill="none" stroke-linecap="round"/>
  <!-- Crystal/mineral nodules on left log -->
  <circle cx="85" cy="862" r="8" fill="rgba(160,80,220,0.55)"/>
  <circle cx="150" cy="870" r="6" fill="rgba(80,200,200,0.52)"/>
  <circle cx="210" cy="876" r="7" fill="rgba(160,80,220,0.48)"/>
  <!-- Glowing spire plants - left -->
  <line x1="75" y1="822" x2="54" y2="785" stroke="rgba(140,80,200,0.75)" stroke-width="5"/>
  <ellipse cx="54" cy="782" rx="10" ry="16" fill="rgba(160,80,220,0.65)"/>
  <circle cx="54" cy="782" r="14" fill="rgba(140,60,200,0.28)"/>
  <line x1="102" y1="814" x2="96" y2="772" stroke="rgba(140,80,200,0.70)" stroke-width="4"/>
  <ellipse cx="96" cy="769" rx="8" ry="14" fill="rgba(80,200,200,0.62)"/>
  <circle cx="96" cy="769" r="12" fill="rgba(60,180,180,0.26)"/>
  <line x1="128" y1="808" x2="142" y2="770" stroke="rgba(140,80,200,0.65)" stroke-width="4"/>
  <ellipse cx="142" cy="767" rx="8" ry="14" fill="rgba(160,80,220,0.60)"/>
  <circle cx="142" cy="767" r="12" fill="rgba(140,60,200,0.24)"/>
  <line x1="52" y1="816" x2="32" y2="778" stroke="rgba(80,200,200,0.62)" stroke-width="4"/>
  <ellipse cx="32" cy="775" rx="7" ry="12" fill="rgba(80,200,200,0.58)"/>

  <!-- Bottom-right: dense mystical vegetation + stone arch -->
  <ellipse cx="856" cy="850" rx="210" ry="115" fill="rgba(36,26,55,0.88)"/>
  <ellipse cx="940" cy="810" rx="128" ry="96" fill="rgba(42,30,62,0.85)"/>
  <ellipse cx="796" cy="822" rx="108" ry="72" fill="rgba(48,36,70,0.82)"/>
  <!-- Glowing cracks on right rocks -->
  <path d="M 810,818 Q 838,806 865,812" stroke="rgba(80,200,200,0.38)" stroke-width="3" fill="none"/>
  <path d="M 875,824 Q 904,812 928,818" stroke="rgba(160,80,220,0.35)" stroke-width="2.5" fill="none"/>
  <!-- Mystical tree trunk right -->
  <rect x="924" y="630" width="56" height="210" rx="16" fill="rgba(32,22,50,0.92)"/>
  <rect x="932" y="630" width="26" height="200" rx="9" fill="rgba(52,36,78,0.38)"/>
  <!-- Glowing bark lines on right trunk -->
  <line x1="938" y1="650" x2="936" y2="780" stroke="rgba(160,80,220,0.35)" stroke-width="2.5"/>
  <line x1="952" y1="640" x2="950" y2="770" stroke="rgba(80,200,200,0.30)" stroke-width="2"/>
  <!-- Right crystal spire plants -->
  <line x1="824" y1="818" x2="842" y2="778" stroke="rgba(140,80,200,0.74)" stroke-width="5"/>
  <ellipse cx="842" cy="775" rx="10" ry="16" fill="rgba(160,80,220,0.64)"/>
  <circle cx="842" cy="775" r="14" fill="rgba(140,60,200,0.27)"/>
  <line x1="798" y1="810" x2="778" y2="770" stroke="rgba(80,200,200,0.70)" stroke-width="4"/>
  <ellipse cx="778" cy="767" rx="8" ry="14" fill="rgba(80,200,200,0.62)"/>
  <circle cx="778" cy="767" r="12" fill="rgba(60,180,180,0.25)"/>
  <line x1="858" y1="812" x2="868" y2="772" stroke="rgba(140,80,200,0.66)" stroke-width="4"/>
  <ellipse cx="868" cy="769" rx="8" ry="14" fill="rgba(160,80,220,0.60)"/>
  <line x1="960" y1="816" x2="980" y2="778" stroke="rgba(80,200,200,0.64)" stroke-width="4"/>
  <ellipse cx="980" cy="775" rx="7" ry="12" fill="rgba(80,200,200,0.58)"/>

  <!-- Right-edge: ancient mystical tree trunk with buttress roots -->
  <rect x="942" y="330" width="58" height="350" rx="17" fill="rgba(30,20,48,0.93)"/>
  <rect x="950" y="330" width="26" height="330" rx="10" fill="rgba(50,34,76,0.38)"/>
  <!-- Glowing vine on right trunk -->
  <path d="M 962,340 Q 978,430 975,520 Q 972,610 966,670" stroke="rgba(80,200,200,0.32)" stroke-width="4" fill="none"/>
  <path d="M 944,360 Q 930,450 928,540 Q 926,630 932,680" stroke="rgba(160,80,220,0.28)" stroke-width="3" fill="none"/>
  <!-- Root buttresses -->
  <path d="M 942,660 Q 898,694 872,740" stroke="rgba(30,20,48,0.85)" stroke-width="22" fill="none" stroke-linecap="round"/>
  <path d="M 962,668 Q 988,708 996,752" stroke="rgba(30,20,48,0.80)" stroke-width="19" fill="none" stroke-linecap="round"/>
  <path d="M 955,674 Q 961,714 959,755" stroke="rgba(30,20,48,0.75)" stroke-width="16" fill="none" stroke-linecap="round"/>

  <!-- Top-right corner: mystical leafy canopy with glow -->
  <ellipse cx="920" cy="230" rx="142" ry="112" fill="rgba(32,22,52,0.84)"/>
  <ellipse cx="976" cy="182" rx="105" ry="96" fill="rgba(38,28,60,0.87)"/>
  <ellipse cx="1000" cy="142" rx="84" ry="108" fill="rgba(34,24,56,0.91)"/>
  <ellipse cx="868" cy="208" rx="84" ry="68" fill="rgba(44,32,66,0.80)"/>
  <ellipse cx="828" cy="165" rx="68" ry="58" fill="rgba(48,36,72,0.76)"/>
  <!-- Glowing accents on canopy -->
  <circle cx="890" cy="195" r="12" fill="rgba(160,80,220,0.35)"/>
  <circle cx="954" cy="168" r="10" fill="rgba(80,200,200,0.32)"/>
  <circle cx="960" cy="225" r="8" fill="rgba(160,80,220,0.30)"/>
  <!-- Hanging luminous vines -->
  <path d="M 898,278 Q 882,324 868,370 Q 854,414 848,458" stroke="rgba(80,200,200,0.42)" stroke-width="5" fill="none"/>
  <path d="M 936,292 Q 920,340 914,388 Q 908,434 904,480" stroke="rgba(160,80,220,0.38)" stroke-width="4" fill="none"/>
  <!-- Glow droplets on vines -->
  <circle cx="868" cy="370" r="5" fill="rgba(80,200,200,0.55)"/>
  <circle cx="848" cy="458" r="6" fill="rgba(80,200,200,0.50)"/>
  <circle cx="904" cy="390" r="5" fill="rgba(160,80,220,0.52)"/>
  <circle cx="904" cy="480" r="6" fill="rgba(160,80,220,0.48)"/>

  <!-- Mystical stones bottom-center-left -->
  <ellipse cx="352" cy="934" rx="65" ry="42" fill="rgba(44,32,64,0.72)"/>
  <ellipse cx="335" cy="921" rx="42" ry="27" fill="rgba(52,40,74,0.68)"/>
  <circle cx="356" cy="925" r="6" fill="rgba(160,80,220,0.50)"/>
  <circle cx="330" cy="916" r="5" fill="rgba(80,200,200,0.46)"/>

  <!-- Mystical stones bottom-center-right -->
  <ellipse cx="654" cy="928" rx="60" ry="38" fill="rgba(40,28,60,0.70)"/>
  <ellipse cx="668" cy="916" rx="40" ry="25" fill="rgba(48,36,70,0.65)"/>
  <circle cx="650" cy="920" r="5" fill="rgba(80,200,200,0.48)"/>
  <circle cx="672" cy="912" r="6" fill="rgba(160,80,220,0.44)"/>
</svg>
